<?xml version="1.0" standalone="no"?>
<!DOCTYPE svg PUBLIC "-//W3C//DTD SVG 20010904//EN"
 "http://www.w3.org/TR/2001/REC-SVG-20010904/DTD/svg10.dtd">
<svg version="1.0" xmlns="http://www.w3.org/2000/svg"
 width="1024.000000pt" height="1024.000000pt" viewBox="0 0 1024.000000 1024.000000"
 preserveAspectRatio="xMidYMid meet">
<metadata>
Created by potrace 1.16, written by Peter Selinger 2001-2019
</metadata>
<g transform="translate(0.000000,1024.000000) scale(0.100000,-0.100000)"
fill="#000000" stroke="none">
<path d="M2920 9233 c-123 -5 -390 -33 -465 -49 -38 -8 -79 -16 -90 -18 -11
-2 -20 -4 -20 -5 0 -1 -12 -4 -27 -6 -14 -2 -59 -13 -100 -24 -419 -118 -811
-420 -1029 -793 -183 -312 -257 -618 -279 -1148 -13 -314 -13 -4023 0 -4338
10 -243 27 -406 56 -557 103 -527 419 -973 873 -1230 182 -103 364 -167 596
-209 279 -52 235 -51 2700 -51 2430 0 2371 -1 2655 46 752 125 1316 657 1479
1394 28 128 49 295 61 480 13 216 13 4374 0 4590 -30 477 -122 794 -317 1090
-261 396 -656 662 -1133 763 -133 29 -316 50 -515 62 -151 9 -4237 11 -4445 3z
m3115 -935 c224 -30 419 -121 541 -249 95 -101 134 -198 134 -332 0 -154 -69
-296 -215 -443 -232 -234 -577 -381 -978 -415 -242 -21 -476 16 -660 104 -160
77 -260 168 -321 297 -29 61 -31 71 -31 185 0 107 3 127 26 183 87 205 257
373 510 501 301 153 662 215 994 169z m-3259 -193 c291 -55 591 -249 785 -508
153 -206 249 -484 249 -724 0 -463 -302 -834 -744 -912 -75 -14 -262 -14 -343
-1 -421 69 -815 388 -979 796 -75 185 -104 376 -85 550 64 565 541 907 1117
799z m3384 -2155 c717 -84 1337 -365 1775 -805 138 -139 209 -225 300 -370
398 -632 351 -1388 -124 -1980 -523 -652 -1495 -1022 -2482 -944 -938 73
-1742 497 -2175 1148 -281 420 -364 928 -229 1396 121 420 426 808 856 1092
400 264 887 425 1429 472 128 12 520 6 650 -9z"/>
</g>
</svg>
