<svg version="1.1" id="Layer_1" xmlns="http://www.w3.org/2000/svg" xmlns:xlink="http://www.w3.org/1999/xlink" x="0px" y="0px"
	 width="100%" viewBox="0 0 128 128" enable-background="new 0 0 128 128" xml:space="preserve">
<path fill="#1A1B1B" opacity="1.000000" stroke="none" 
	d="
M55.000000,129.000000 
	C53.933323,129.000000 52.866650,129.000000 51.338058,128.638550 
	C50.013390,126.034676 49.150635,123.792244 48.256790,121.469017 
	C47.016895,121.852417 46.251469,121.875053 45.798717,122.262802 
	C42.014675,125.503441 39.516369,125.254745 38.028759,120.003769 
	C37.742100,118.991913 35.224472,117.689949 34.144444,117.990334 
	C30.216225,119.082840 27.909807,118.560928 27.981838,113.924377 
	C28.026522,111.048119 26.640074,110.159569 23.840448,110.723648 
	C20.451075,111.406548 18.553164,109.966637 19.259821,106.381790 
	C19.859287,103.340744 18.918070,101.957283 15.799102,101.983345 
	C12.012057,102.014992 10.814057,100.342941 11.851940,96.563217 
	C12.210301,95.258148 11.416616,92.399048 10.684172,92.226753 
	C4.490156,90.769829 4.641924,87.751183 8.023266,83.528389 
	C8.280725,83.206856 8.164660,82.586227 8.298080,81.469902 
	C5.902492,80.659157 3.451246,79.829582 1.000000,79.000000 
	C1.000000,77.933327 1.000000,76.866646 1.324341,75.330048 
	C3.196105,73.637917 4.743527,72.415710 7.312233,70.386864 
	C4.386957,69.280716 2.693479,68.640358 1.000000,68.000000 
	C1.000000,66.285576 1.000000,64.571159 1.339650,62.412109 
	C3.151656,61.230579 4.624012,60.493675 7.216743,59.196030 
	C4.507957,57.367718 2.753978,56.183861 1.000000,55.000000 
	C1.000000,53.933323 1.000000,52.866650 1.361450,51.338081 
	C3.954799,50.022411 6.186697,49.168633 8.506048,48.281403 
	C8.155457,47.078537 8.153332,46.304939 7.768480,45.870003 
	C4.140225,41.769615 5.044257,39.296440 10.320592,38.065212 
	C13.644041,37.289684 12.421553,34.877792 11.812723,32.906151 
	C10.813287,29.669573 12.038195,28.162777 15.280467,28.075056 
	C16.597675,28.039419 17.918083,28.121941 19.110149,28.545277 
	C18.725746,34.973248 18.468225,41.006641 18.112867,47.399818 
	C18.076290,49.822708 18.137550,51.885822 18.165739,54.384674 
	C18.184875,56.566467 18.237082,58.312519 18.219103,60.497421 
	C18.479681,64.954018 18.810444,68.971764 19.118423,73.374771 
	C20.625732,77.881744 22.155825,82.003456 23.776108,86.469193 
	C27.126436,93.219711 30.567184,99.222183 39.530941,95.611710 
	C40.465965,95.235092 41.790062,95.824432 43.088406,96.314468 
	C43.528275,97.609100 44.034412,98.548203 44.063110,99.501678 
	C44.270535,106.393364 48.833469,108.400810 54.633087,109.739616 
	C63.284241,111.736679 71.644981,111.119522 80.350945,108.321243 
	C82.203293,106.629425 84.443779,105.170174 84.984856,103.235619 
	C87.189796,95.352028 86.979652,95.425201 94.931572,96.580605 
	C96.568336,96.818413 98.399292,95.719711 100.413818,95.033707 
	C102.895622,91.263397 105.104362,87.696411 107.523499,83.846771 
	C108.847984,79.379433 109.962082,75.194756 111.223808,70.624054 
	C111.504890,65.483978 111.638336,60.729946 111.828697,55.514130 
	C111.835342,50.361988 111.785072,45.671623 111.792839,40.536667 
	C111.542015,36.640781 111.233147,33.189495 110.835983,29.422028 
	C110.546692,28.717110 110.345680,28.328373 110.568771,27.938660 
	C118.013771,28.146738 117.887169,28.143833 117.729034,35.033535 
	C117.704430,36.105637 119.241417,37.829571 120.395615,38.202850 
	C124.693306,39.592796 125.868683,41.550865 122.619598,45.226177 
	C122.034744,45.887760 121.932220,46.975739 121.393791,48.451103 
	C124.116814,49.363609 126.558411,50.181805 129.000000,51.000000 
	C129.000000,52.066677 129.000000,53.133350 128.675659,54.669880 
	C126.804047,56.362495 125.256790,57.585255 122.687927,59.615379 
	C125.613129,60.720482 127.306564,61.360241 129.000000,62.000000 
	C129.000000,63.714420 129.000000,65.428841 128.660431,67.587921 
	C126.849350,68.769951 125.377861,69.507317 122.789360,70.804428 
	C125.494217,72.631683 127.247108,73.815842 129.000000,75.000000 
	C129.000000,76.066673 129.000000,77.133354 128.638550,78.661880 
	C126.034569,79.986488 123.792061,80.849243 121.468201,81.743294 
	C121.852516,82.983215 121.873512,83.753479 122.264214,84.200951 
	C125.563309,87.979469 125.259216,90.426781 120.047737,91.979630 
	C119.009308,92.289055 117.779434,95.063011 118.114151,96.301582 
	C119.195602,100.303452 118.034035,102.046318 113.962402,102.012192 
	C111.126846,101.988426 110.148735,103.280106 110.719185,106.122093 
	C111.491318,109.968971 109.574783,111.445282 105.920738,110.701256 
	C103.341553,110.176079 102.020836,111.055649 102.044167,113.665718 
	C102.082314,117.933266 100.313950,119.544914 96.146828,117.906181 
	C93.817047,116.989983 92.319603,117.605377 91.736198,120.189377 
	C90.612587,125.166100 88.103714,125.602196 84.429131,122.394463 
	C83.874687,121.910461 82.934540,121.868294 81.563644,121.424583 
	C80.659119,124.097412 79.829559,126.548706 79.000000,129.000000 
	C77.933327,129.000000 76.866646,129.000000 75.330048,128.675690 
	C73.637711,126.804344 72.415298,125.257324 70.386726,122.690086 
	C69.280884,125.613663 68.640442,127.306831 68.000000,129.000000 
	C66.285576,129.000000 64.571159,129.000000 62.412067,128.660324 
	C61.231052,126.848175 60.494701,125.375702 59.197704,122.782104 
	C57.368309,125.491920 56.184155,127.245956 55.000000,129.000000 
M34.381779,107.055252 
	C36.214314,106.653236 38.187080,106.516708 39.785908,105.672218 
	C40.213387,105.446426 39.983955,102.476730 39.185013,101.809036 
	C38.186893,100.974869 35.190174,100.665543 34.974628,101.094215 
	C34.167934,102.698540 34.143951,104.696419 34.381779,107.055252 
M94.023094,100.826141 
	C92.446098,101.868683 90.676727,102.734810 89.437004,104.086662 
	C89.152443,104.396965 90.460213,107.096275 91.444458,107.409332 
	C92.711349,107.812286 95.651436,106.987770 95.674377,106.571060 
	C95.774132,104.758980 95.075981,102.902977 94.023094,100.826141 
z"/>
<path fill="#000000" opacity="1.000000" stroke="none" 
	d="
M79.468658,129.000000 
	C79.829559,126.548706 80.659119,124.097412 81.563644,121.424583 
	C82.934540,121.868294 83.874687,121.910461 84.429131,122.394463 
	C88.103714,125.602196 90.612587,125.166100 91.736198,120.189377 
	C92.319603,117.605377 93.817047,116.989983 96.146828,117.906181 
	C100.313950,119.544914 102.082314,117.933266 102.044167,113.665718 
	C102.020836,111.055649 103.341553,110.176079 105.920738,110.701256 
	C109.574783,111.445282 111.491318,109.968971 110.719185,106.122093 
	C110.148735,103.280106 111.126846,101.988426 113.962402,102.012192 
	C118.034035,102.046318 119.195602,100.303452 118.114151,96.301582 
	C117.779434,95.063011 119.009308,92.289055 120.047737,91.979630 
	C125.259216,90.426781 125.563309,87.979469 122.264214,84.200951 
	C121.873512,83.753479 121.852516,82.983215 121.468201,81.743294 
	C123.792061,80.849243 126.034569,79.986488 128.638550,79.061867 
	C129.000000,95.593414 129.000000,112.186829 129.000000,129.000000 
	C112.646431,129.000000 96.291870,129.000000 79.468658,129.000000 
z"/>
<path fill="#000000" opacity="1.000000" stroke="none" 
	d="
M1.000000,79.468658 
	C3.451246,79.829582 5.902492,80.659157 8.298080,81.469902 
	C8.164660,82.586227 8.280725,83.206856 8.023266,83.528389 
	C4.641924,87.751183 4.490156,90.769829 10.684172,92.226753 
	C11.416616,92.399048 12.210301,95.258148 11.851940,96.563217 
	C10.814057,100.342941 12.012057,102.014992 15.799102,101.983345 
	C18.918070,101.957283 19.859287,103.340744 19.259821,106.381790 
	C18.553164,109.966637 20.451075,111.406548 23.840448,110.723648 
	C26.640074,110.159569 28.026522,111.048119 27.981838,113.924377 
	C27.909807,118.560928 30.216225,119.082840 34.144444,117.990334 
	C35.224472,117.689949 37.742100,118.991913 38.028759,120.003769 
	C39.516369,125.254745 42.014675,125.503441 45.798717,122.262802 
	C46.251469,121.875053 47.016895,121.852417 48.256790,121.469017 
	C49.150635,123.792244 50.013390,126.034676 50.938072,128.638550 
	C34.406586,129.000000 17.813169,129.000000 1.000000,129.000000 
	C1.000000,112.646431 1.000000,96.291870 1.000000,79.468658 
z"/>
<path fill="#000000" opacity="1.000000" stroke="none" 
	d="
M19.237036,28.150700 
	C17.918083,28.121941 16.597675,28.039419 15.280467,28.075056 
	C12.038195,28.162777 10.813287,29.669573 11.812723,32.906151 
	C12.421553,34.877792 13.644041,37.289684 10.320592,38.065212 
	C5.044257,39.296440 4.140225,41.769615 7.768480,45.870003 
	C8.153332,46.304939 8.155457,47.078537 8.506048,48.281403 
	C6.186697,49.168633 3.954799,50.022411 1.361450,50.938095 
	C1.000000,34.406586 1.000000,17.813171 1.000000,1.000000 
	C17.353571,1.000000 33.708126,1.000000 50.468582,1.362320 
	C49.680634,4.788654 49.872066,9.132257 44.629467,8.423405 
	C44.614986,8.377019 44.704258,8.336969 44.634560,8.083328 
	C44.359863,7.549447 44.154865,7.269207 43.746651,6.779005 
	C42.747185,6.678668 41.950939,6.788291 40.868301,7.076082 
	C38.759613,8.858886 36.937313,10.463521 34.729462,12.036199 
	C28.187872,11.051364 28.014080,11.252804 28.045511,19.418728 
	C27.818192,19.895130 27.594860,20.074091 26.892292,20.066635 
	C19.394451,18.249432 18.189663,19.444502 19.973156,26.434456 
	C20.053156,26.747992 20.132771,27.061625 20.100014,27.559750 
	C19.782318,27.962841 19.532175,28.098312 19.237036,28.150700 
z"/>
<path fill="#000000" opacity="1.000000" stroke="none" 
	d="
M129.000000,50.531342 
	C126.558411,50.181805 124.116814,49.363609 121.393791,48.451103 
	C121.932220,46.975739 122.034744,45.887760 122.619598,45.226177 
	C125.868683,41.550865 124.693306,39.592796 120.395615,38.202850 
	C119.241417,37.829571 117.704430,36.105637 117.729034,35.033535 
	C117.887169,28.143833 118.013771,28.146738 110.536942,27.950169 
	C110.081009,27.962658 110.065445,27.896828 110.096970,27.502724 
	C110.270203,26.300940 110.427261,25.495607 110.551109,24.685200 
	C111.323868,19.628801 110.016914,18.458723 104.879654,19.625988 
	C104.079765,19.807735 103.300484,20.080196 102.345413,20.189877 
	C101.977684,19.871067 101.845215,19.634457 101.818481,18.913933 
	C101.988159,11.169022 101.827873,11.021691 94.605560,11.919353 
	C91.837151,9.832870 89.361572,7.901101 86.617165,6.153013 
	C84.984177,7.097898 83.620010,7.859103 81.648239,8.959352 
	C80.621140,5.872379 79.810570,3.436189 79.000000,1.000000 
	C95.593407,1.000000 112.186821,1.000000 129.000000,1.000000 
	C129.000000,17.353571 129.000000,33.708126 129.000000,50.531342 
z"/>
<path fill="#1A1A1A" opacity="1.000000" stroke="none" 
	d="
M78.600006,1.000000 
	C79.810570,3.436189 80.621140,5.872379 81.648239,8.959352 
	C83.620010,7.859103 84.984177,7.097898 86.703934,6.616161 
	C86.992569,12.599336 86.925606,18.303043 86.553780,23.842751 
	C79.919312,20.215359 73.805649,17.429127 67.711594,24.489922 
	C65.301674,27.282150 62.509518,25.600985 59.907124,23.547848 
	C57.903259,21.966921 55.277710,21.173994 52.663315,19.985168 
	C52.050861,19.849514 51.703690,19.759371 51.232170,19.348297 
	C48.953194,15.508174 46.798569,11.988982 44.643948,8.469791 
	C49.872066,9.132257 49.680634,4.788654 50.937241,1.362320 
	C52.066669,1.000000 53.133339,1.000000 54.670509,1.324148 
	C56.362709,3.195135 57.584408,4.741975 59.611717,7.308834 
	C60.718353,4.385571 61.359177,2.692786 62.000000,1.000000 
	C63.714359,1.000000 65.428719,1.000000 67.588196,1.339595 
	C68.769302,3.151160 69.505272,4.623130 70.801376,7.215382 
	C72.631096,4.506781 73.815544,2.753390 75.000000,0.999999 
	C76.066673,1.000000 77.133339,1.000000 78.600006,1.000000 
M63.953537,18.500782 
	C65.170105,17.468136 66.386681,16.435490 67.603249,15.402843 
	C66.472267,14.749086 65.341278,14.095330 64.210297,13.441576 
	C63.922428,15.012716 63.634563,16.583857 63.953537,18.500782 
z"/>
<path fill="#000000" opacity="1.000000" stroke="none" 
	d="
M129.000000,74.562500 
	C127.247108,73.815842 125.494217,72.631683 122.789360,70.804428 
	C125.377861,69.507317 126.849350,68.769951 128.660431,68.016289 
	C129.000000,70.041664 129.000000,72.083336 129.000000,74.562500 
z"/>
<path fill="#000000" opacity="1.000000" stroke="none" 
	d="
M1.000000,68.437500 
	C2.693479,68.640358 4.386957,69.280716 7.312233,70.386864 
	C4.743527,72.415710 3.196105,73.637917 1.324341,74.930061 
	C1.000000,72.958336 1.000000,70.916664 1.000000,68.437500 
z"/>
<path fill="#000000" opacity="1.000000" stroke="none" 
	d="
M129.000000,61.562500 
	C127.306564,61.360241 125.613129,60.720482 122.687927,59.615379 
	C125.256790,57.585255 126.804047,56.362495 128.675659,55.069866 
	C129.000000,57.041668 129.000000,59.083332 129.000000,61.562500 
z"/>
<path fill="#000000" opacity="1.000000" stroke="none" 
	d="
M1.000000,55.437500 
	C2.753978,56.183861 4.507957,57.367718 7.216743,59.196030 
	C4.624012,60.493675 3.151656,61.230579 1.339650,61.983742 
	C1.000000,59.958332 1.000000,57.916668 1.000000,55.437500 
z"/>
<path fill="#000000" opacity="1.000000" stroke="none" 
	d="
M74.562500,0.999999 
	C73.815544,2.753390 72.631096,4.506781 70.801376,7.215382 
	C69.505272,4.623130 68.769302,3.151160 68.016663,1.339595 
	C70.041664,1.000000 72.083336,1.000000 74.562500,0.999999 
z"/>
<path fill="#000000" opacity="1.000000" stroke="none" 
	d="
M61.562500,1.000000 
	C61.359177,2.692786 60.718353,4.385571 59.611717,7.308834 
	C57.584408,4.741975 56.362709,3.195135 55.070507,1.324148 
	C57.041668,1.000000 59.083332,1.000000 61.562500,1.000000 
z"/>
<path fill="#000000" opacity="1.000000" stroke="none" 
	d="
M55.437500,129.000000 
	C56.184155,127.245956 57.368309,125.491920 59.197704,122.782104 
	C60.494701,125.375702 61.231052,126.848175 61.983700,128.660324 
	C59.958332,129.000000 57.916668,129.000000 55.437500,129.000000 
z"/>
<path fill="#000000" opacity="1.000000" stroke="none" 
	d="
M68.437500,129.000000 
	C68.640442,127.306831 69.280884,125.613663 70.386726,122.690086 
	C72.415298,125.257324 73.637711,126.804344 74.930069,128.675690 
	C72.958336,129.000000 70.916664,129.000000 68.437500,129.000000 
z"/>
<path fill="#000000" opacity="1.000000" stroke="none" 
	d="
M79.957794,108.335304 
	C71.644981,111.119522 63.284241,111.736679 54.633087,109.739616 
	C48.833469,108.400810 44.270535,106.393364 44.063110,99.501678 
	C44.034412,98.548203 43.528275,97.609100 43.114304,95.860413 
	C42.935005,92.034836 42.884575,89.012192 42.897095,85.530533 
	C42.918129,81.044296 42.876213,77.017052 42.898087,72.533386 
	C42.919254,68.382416 42.876637,64.687866 42.899712,60.557655 
	C42.946850,57.790943 42.928299,55.459892 43.003273,53.140869 
	C43.096802,53.152897 43.185608,52.986515 43.458076,53.154366 
	C44.542728,54.545444 45.354916,55.768669 46.214695,57.329178 
	C48.896938,61.441311 51.531593,65.216164 54.218838,69.329552 
	C57.165482,73.814560 60.059532,77.961037 62.985550,82.459206 
	C65.637169,86.555038 68.256821,90.299179 70.935478,94.395767 
	C73.982254,99.277245 76.970024,103.806274 79.957794,108.335304 
z"/>
<path fill="#629D3D" opacity="1.000000" stroke="none" 
	d="
M111.734802,40.981262 
	C111.785072,45.671623 111.835342,50.361988 111.375305,55.517357 
	C102.965637,55.984043 95.066284,55.985722 87.109482,55.525082 
	C87.090370,50.371407 87.128708,45.680050 87.625214,40.990646 
	C95.967194,40.988819 103.850998,40.985039 111.734802,40.981262 
z"/>
<path fill="#59953B" opacity="1.000000" stroke="none" 
	d="
M87.166924,55.987396 
	C95.066284,55.985722 102.965637,55.984043 111.318390,55.979141 
	C111.638336,60.729946 111.504890,65.483978 110.749283,70.621887 
	C102.473785,71.000099 94.820457,70.994431 87.110901,70.526215 
	C87.092102,65.371582 87.129509,60.679489 87.166924,55.987396 
z"/>
<path fill="#71A940" opacity="1.000000" stroke="none" 
	d="
M86.858635,24.006750 
	C86.925606,18.303043 86.992569,12.599336 86.972763,6.432480 
	C89.361572,7.901101 91.837151,9.832870 94.687332,12.251222 
	C97.301880,14.944941 99.541817,17.152075 101.781754,19.359211 
	C101.845215,19.634457 101.977684,19.871067 102.488716,20.504782 
	C105.220665,23.259289 107.643059,25.578058 110.065445,27.896828 
	C110.065445,27.896828 110.081009,27.962658 110.112839,27.951147 
	C110.345680,28.328373 110.546692,28.717110 110.302460,29.460972 
	C102.293678,29.875343 94.730118,29.934587 87.103607,29.569775 
	C86.979980,27.432728 86.919304,25.719738 86.858635,24.006750 
z"/>
<path fill="#1281CD" opacity="1.000000" stroke="none" 
	d="
M42.834023,60.993317 
	C42.876637,64.687866 42.919254,68.382416 42.439995,72.535355 
	C34.325809,72.992332 26.733509,72.990921 19.141207,72.989502 
	C18.810444,68.971764 18.479681,64.954018 18.438847,60.498024 
	C18.728775,60.059769 19.166969,60.026066 19.558437,60.118755 
	C27.577944,60.472069 35.205982,60.732693 42.834023,60.993317 
z"/>
<path fill="#1177C6" opacity="1.000000" stroke="none" 
	d="
M19.118423,73.374771 
	C26.733509,72.990921 34.325809,72.992332 42.376205,72.991783 
	C42.876213,77.017052 42.918129,81.044296 42.439224,85.532532 
	C35.840908,86.037399 29.763411,86.081284 23.685915,86.125168 
	C22.155825,82.003456 20.625732,77.881744 19.118423,73.374771 
z"/>
<path fill="#6BA63F" opacity="1.000000" stroke="none" 
	d="
M87.166565,29.993832 
	C94.730118,29.934587 102.293678,29.875343 110.390755,29.777153 
	C111.233147,33.189495 111.542015,36.640781 111.792839,40.536663 
	C103.850998,40.985039 95.967194,40.988819 87.565826,40.536327 
	C87.087708,36.717979 87.127136,33.355907 87.166565,29.993832 
z"/>
<path fill="#508D39" opacity="1.000000" stroke="none" 
	d="
M87.167122,70.988754 
	C94.820457,70.994431 102.473785,71.000099 110.601646,71.007927 
	C109.962082,75.194756 108.847984,79.379433 107.036469,83.822571 
	C102.219772,84.053246 98.100502,84.025452 93.757111,83.753174 
	C91.697952,80.998116 89.862900,78.487534 87.945274,75.634506 
	C87.565704,74.156090 87.268707,73.020119 87.000488,71.655930 
	C87.029282,71.427696 87.167122,70.988754 87.167122,70.988754 
z"/>
<path fill="#4F9840" opacity="1.000000" stroke="none" 
	d="
M80.350945,108.321243 
	C76.970024,103.806274 73.982254,99.277245 71.407364,94.388733 
	C78.254028,93.901924 85.100243,95.368660 89.604706,88.537415 
	C90.304214,87.476585 92.590034,87.461769 94.456177,87.077377 
	C96.560295,89.873367 98.350517,92.555199 100.140739,95.237038 
	C98.399292,95.719711 96.568336,96.818413 94.931572,96.580605 
	C86.979652,95.425201 87.189796,95.352028 84.984856,103.235619 
	C84.443779,105.170174 82.203293,106.629425 80.350945,108.321243 
z"/>
<path fill="#157DB1" opacity="1.000000" stroke="none" 
	d="
M19.110149,28.545277 
	C19.532175,28.098312 19.782318,27.962841 20.404495,27.434925 
	C22.171404,26.035126 23.521284,24.944689 25.075432,24.138247 
	C30.429028,31.987080 35.578358,39.551918 40.862137,47.445515 
	C41.726257,49.511688 42.455933,51.249100 43.185608,52.986515 
	C43.185608,52.986515 43.096802,53.152897 42.728374,52.996574 
	C41.272125,51.883862 40.184303,50.927467 38.976883,49.643612 
	C35.888283,44.672142 32.919285,40.028130 29.941803,35.370838 
	C24.309816,39.365883 24.131498,40.385849 26.594412,48.999699 
	C25.164801,48.998379 24.125076,48.996582 22.801895,48.813515 
	C21.082525,48.101505 19.646616,47.570770 18.210705,47.040035 
	C18.468225,41.006641 18.725746,34.973248 19.110149,28.545277 
z"/>
<path fill="#116EBF" opacity="1.000000" stroke="none" 
	d="
M23.776108,86.469193 
	C29.763411,86.081284 35.840908,86.037399 42.376274,85.991531 
	C42.884575,89.012192 42.935005,92.034836 42.959541,95.511543 
	C41.790062,95.824432 40.465965,95.235092 39.530941,95.611710 
	C30.567184,99.222183 27.126436,93.219711 23.776108,86.469193 
z"/>
<path fill="#498537" opacity="1.000000" stroke="none" 
	d="
M100.413818,95.033707 
	C98.350517,92.555199 96.560295,89.873367 94.430847,86.707657 
	C94.054817,85.481750 94.018028,84.739700 93.981232,83.997658 
	C98.100502,84.025452 102.219772,84.053246 106.826073,84.105240 
	C105.104362,87.696411 102.895622,91.263397 100.413818,95.033707 
z"/>
<path fill="#1474AF" opacity="1.000000" stroke="none" 
	d="
M23.085354,48.994785 
	C24.125076,48.996582 25.164801,48.998379 26.775019,49.156906 
	C27.579218,49.531200 27.802723,49.758774 28.116018,50.317093 
	C29.323843,53.981712 27.223019,55.496838 24.732077,56.841267 
	C22.851799,57.856098 21.020222,58.961163 19.166969,60.026066 
	C19.166969,60.026066 18.728775,60.059769 18.509031,60.059170 
	C18.237082,58.312519 18.184875,56.566467 18.533752,54.373451 
	C22.267872,53.923309 23.002607,51.733406 23.085354,48.994785 
z"/>
<path fill="#1061B1" opacity="1.000000" stroke="none" 
	d="
M34.104134,106.800995 
	C34.143951,104.696419 34.167934,102.698540 34.974628,101.094215 
	C35.190174,100.665543 38.186893,100.974869 39.185013,101.809036 
	C39.983955,102.476730 40.213387,105.446426 39.785908,105.672218 
	C38.187080,106.516708 36.214314,106.653236 34.104134,106.800995 
z"/>
<path fill="#468C3C" opacity="1.000000" stroke="none" 
	d="
M94.345428,100.944534 
	C95.075981,102.902977 95.774132,104.758980 95.674377,106.571060 
	C95.651436,106.987770 92.711349,107.812286 91.444458,107.409332 
	C90.460213,107.096275 89.152443,104.396965 89.437004,104.086662 
	C90.676727,102.734810 92.446098,101.868683 94.345428,100.944534 
z"/>
<path fill="#148CD4" opacity="1.000000" stroke="none" 
	d="
M22.801895,48.813515 
	C23.002607,51.733406 22.267872,53.923309 18.566822,53.937710 
	C18.137550,51.885822 18.076290,49.822708 18.112867,47.399818 
	C19.646616,47.570770 21.082525,48.101505 22.801895,48.813515 
z"/>
<path fill="#67B35F" opacity="1.000000" stroke="none" 
	d="
M40.727688,47.116756 
	C35.578358,39.551918 30.429028,31.987080 25.205708,23.847347 
	C25.853569,22.235094 26.575420,21.197737 27.297272,20.160381 
	C27.594860,20.074091 27.818192,19.895130 28.367960,19.310175 
	C30.884106,16.687284 32.999557,14.377721 35.115009,12.068157 
	C36.937313,10.463521 38.759613,8.858886 41.037155,7.460325 
	C41.977703,12.788906 42.463017,17.911413 42.942787,23.452335 
	C42.667549,27.240353 42.397858,30.609951 42.101791,34.439220 
	C42.088661,38.255199 42.101906,41.611507 41.987480,45.263828 
	C41.482433,46.078815 41.105061,46.597786 40.727688,47.116756 
z"/>
<path fill="#6A9C3F" opacity="1.000000" stroke="none" 
	d="
M42.948330,23.033916 
	C42.463017,17.911413 41.977703,12.788906 41.323540,7.282157 
	C41.950939,6.788291 42.747185,6.678668 43.771114,7.051970 
	C44.233948,7.802255 44.469105,8.069612 44.704258,8.336969 
	C44.704258,8.336969 44.614986,8.377019 44.629467,8.423405 
	C46.798569,11.988982 48.953194,15.508174 50.886688,19.518860 
	C48.093151,21.018211 45.520741,22.026064 42.948330,23.033916 
z"/>
<path fill="#1B1F1F" opacity="1.000000" stroke="none" 
	d="
M26.892292,20.066635 
	C26.575420,21.197737 25.853569,22.235094 25.001440,23.563351 
	C23.521284,24.944689 22.171404,26.035126 20.517044,27.250389 
	C20.132771,27.061625 20.053156,26.747992 19.973156,26.434456 
	C18.189663,19.444502 19.394451,18.249432 26.892292,20.066635 
z"/>
<path fill="#1E2420" opacity="1.000000" stroke="none" 
	d="
M34.729462,12.036200 
	C32.999557,14.377721 30.884106,16.687284 28.446205,19.105402 
	C28.014080,11.252804 28.187872,11.051364 34.729462,12.036200 
z"/>
<path fill="#1A1A1A" opacity="1.000000" stroke="none" 
	d="
M44.634560,8.083328 
	C44.469105,8.069612 44.233948,7.802255 43.974331,7.261932 
	C44.154865,7.269207 44.359863,7.549447 44.634560,8.083328 
z"/>
<path fill="#1D201B" opacity="1.000000" stroke="none" 
	d="
M110.096970,27.502722 
	C107.643059,25.578058 105.220665,23.259289 102.654968,20.625614 
	C103.300484,20.080196 104.079765,19.807735 104.879654,19.625988 
	C110.016914,18.458723 111.323868,19.628801 110.551109,24.685200 
	C110.427261,25.495607 110.270203,26.300940 110.096970,27.502722 
z"/>
<path fill="#1D1F1B" opacity="1.000000" stroke="none" 
	d="
M101.818481,18.913933 
	C99.541817,17.152075 97.301880,14.944941 94.980164,12.405937 
	C101.827873,11.021691 101.988159,11.169022 101.818481,18.913933 
z"/>
<path fill="#000000" opacity="1.000000" stroke="none" 
	d="
M87.110901,70.526215 
	C87.167122,70.988754 87.029282,71.427696 86.692825,71.556656 
	C85.515556,70.455276 84.674736,69.224937 83.774223,67.660606 
	C81.087418,63.549049 78.460297,59.771484 75.778137,55.653931 
	C73.185867,51.527653 70.648643,47.741364 67.958473,43.641022 
	C65.466873,39.696812 63.128216,36.066654 60.559845,32.168453 
	C57.862953,27.943830 55.395779,23.987253 52.928600,20.030676 
	C55.277710,21.173994 57.903259,21.966921 59.907124,23.547848 
	C62.509518,25.600985 65.301674,27.282150 67.711594,24.489922 
	C73.805649,17.429127 79.919312,20.215359 86.553780,23.842751 
	C86.919304,25.719738 86.979980,27.432728 87.103607,29.569775 
	C87.127136,33.355907 87.087708,36.717979 87.107651,40.534370 
	C87.128708,45.680050 87.090370,50.371407 87.109482,55.525082 
	C87.129509,60.679489 87.092102,65.371582 87.110901,70.526215 
z"/>
<path fill="#7ABC48" opacity="1.000000" stroke="none" 
	d="
M52.663315,19.985168 
	C55.395779,23.987253 57.862953,27.943830 60.142776,32.401554 
	C54.013004,33.261650 48.070587,33.620602 42.128166,33.979549 
	C42.397858,30.609951 42.667549,27.240353 42.942787,23.452335 
	C45.520741,22.026064 48.093151,21.018211 51.011040,19.839792 
	C51.703690,19.759371 52.050861,19.849514 52.663315,19.985168 
z"/>
<path fill="#000000" opacity="1.000000" stroke="none" 
	d="
M63.650116,18.327888 
	C63.634563,16.583857 63.922428,15.012716 64.210297,13.441576 
	C65.341278,14.095330 66.472267,14.749086 67.603249,15.402843 
	C66.386681,16.435490 65.170105,17.468136 63.650116,18.327888 
z"/>
<path fill="#65AC44" opacity="1.000000" stroke="none" 
	d="
M75.833183,55.993916 
	C78.460297,59.771484 81.087418,63.549049 83.379059,67.760269 
	C73.417809,68.459633 63.792027,68.725327 54.166248,68.991020 
	C51.531593,65.216164 48.896938,61.441311 46.672668,57.330521 
	C56.666431,56.661034 66.249809,56.327473 75.833183,55.993916 
z"/>
<path fill="#6CB146" opacity="1.000000" stroke="none" 
	d="
M75.778137,55.653931 
	C66.249809,56.327473 56.666431,56.661034 46.625076,56.993244 
	C45.354916,55.768669 44.542728,54.545444 43.458076,53.154366 
	C42.455933,51.249100 41.726257,49.511688 40.862137,47.445515 
	C41.105061,46.597786 41.482433,46.078815 42.443192,45.271671 
	C51.388191,44.640690 59.749805,44.297882 68.111420,43.955070 
	C70.648643,47.741364 73.185867,51.527653 75.778137,55.653931 
z"/>
<path fill="#5EA644" opacity="1.000000" stroke="none" 
	d="
M54.218838,69.329552 
	C63.792027,68.725327 73.417809,68.459633 83.438751,68.094269 
	C84.674736,69.224937 85.515556,70.455276 86.664040,71.784882 
	C87.268707,73.020119 87.565704,74.156090 87.844604,75.994247 
	C86.953339,80.317490 84.303352,80.926659 81.048019,81.038292 
	C75.011414,81.245316 68.984520,81.735336 62.953587,82.107513 
	C60.059532,77.961037 57.165482,73.814560 54.218838,69.329552 
z"/>
<path fill="#56A042" opacity="1.000000" stroke="none" 
	d="
M62.985550,82.459206 
	C68.984520,81.735336 75.011414,81.245316 81.048019,81.038292 
	C84.303352,80.926659 86.953339,80.317490 87.927185,76.336693 
	C89.862900,78.487534 91.697952,80.998116 93.757118,83.753174 
	C94.018028,84.739700 94.054817,85.481750 94.116951,86.593513 
	C92.590034,87.461769 90.304214,87.476585 89.604706,88.537415 
	C85.100243,95.368660 78.254028,93.901924 71.348358,94.036285 
	C68.256821,90.299179 65.637169,86.555038 62.985550,82.459206 
z"/>
<path fill="#1389D3" opacity="1.000000" stroke="none" 
	d="
M19.558437,60.118755 
	C21.020222,58.961163 22.851799,57.856098 24.732077,56.841267 
	C27.223019,55.496838 29.323843,53.981712 28.573210,50.318077 
	C32.319103,49.989250 35.707794,49.980160 39.096485,49.971069 
	C40.184303,50.927467 41.272125,51.883862 42.634850,52.984547 
	C42.928299,55.459892 42.946850,57.790943 42.899712,60.557655 
	C35.205982,60.732693 27.577944,60.472069 19.558437,60.118755 
z"/>
<path fill="#1492D8" opacity="1.000000" stroke="none" 
	d="
M38.976883,49.643612 
	C35.707794,49.980160 32.319103,49.989250 28.473221,49.997353 
	C27.802723,49.758774 27.579218,49.531200 27.164907,49.156433 
	C24.131498,40.385849 24.309816,39.365883 29.941803,35.370838 
	C32.919285,40.028130 35.888283,44.672142 38.976883,49.643612 
z"/>
<path fill="#73B646" opacity="1.000000" stroke="none" 
	d="
M67.958473,43.641022 
	C59.749805,44.297882 51.388191,44.640690 42.570866,44.975658 
	C42.101906,41.611507 42.088661,38.255199 42.101791,34.439220 
	C48.070587,33.620602 54.013004,33.261650 60.372490,32.669598 
	C63.128216,36.066654 65.466873,39.696812 67.958473,43.641022 
z"/>
</svg>